<svg width="20" height="20" viewBox="0 0 24 24" fill="none" xmlns="http://www.w3.org/2000/svg">
    <path fill-rule="evenodd" clip-rule="evenodd" d="M12 2C6.47715 2 2 6.47715 2 12C2 17.5228 6.47715 22 12 22C17.5228 22 22 17.5228 22 12C22 6.47715 17.5228 2 12 2ZM8.25 12.0001C8.25 11.4589 8.69772 11.0112 9.25 11.0112H14.75C15.3023 11.0112 15.75 11.4589 15.75 12.0001C15.75 12.5413 15.3023 12.989 14.75 12.989H9.25C8.69772 12.989 8.25 12.5413 8.25 12.0001ZM12 8.2501C12.5523 8.2501 13 7.80238 13 7.2501C13 6.69781 12.5523 6.2501 12 6.2501C11.4477 6.2501 11 6.69781 11 7.2501C11 7.80238 11.4477 8.2501 12 8.2501ZM12 15.7501C12.5523 15.7501 13 15.3024 13 14.7501C13 14.1978 12.5523 13.7501 12 13.7501C11.4477 13.7501 11 14.1978 11 14.7501C11 15.3024 11.4477 15.7501 12 15.7501Z" fill="currentColor"/>
</svg>