<svg xmlns="http://www.w3.org/2000/svg" id="uuid-44960692-e075-4444-a608-7bb6543e6197" data-name="graphics" viewBox="0 0 2850 1900"><path d="M1718.81,131.3c-84.09,74.25-137.12,182.86-137.12,303.85v97.84c-168.12-171.45-393.59-400.72-394.63-401.67-184.62-121.16-269.94-43.47-268.05,11.83,45.92,40.99,74.81,104.36,74.81,181.21v1251.29c0,76.86-28.9,140.24-74.83,181.23-3.46,70.04,119.67,120.74,268.09,11.82,84.08-74.25,137.11-182.86,137.11-303.85v-787.03l554.02,563.73c12.39,12.61,33.85,3.83,33.85-13.85V324.36c0-76.86,28.9-140.24,74.83-181.23-6.66-67.78-116.51-116.07-268.08-11.83Z" style="fill: #0c1d4f;"></path><path d="M2392.12,435.16c0-223.79-181.42-405.22-405.21-405.22-102.8,0-196.65,38.3-268.08,101.38,171.46-101.38,342.92,5.81,342.92,193.04v503.54h-.81v587.39c0,81.41-98.75,121.89-155.9,63.9l-910.9-924.42c-98.56-100.02-187.6-238.91-116.93-360.26,58.01-99.61,183.93-137.64,309.85-63.19-71.44-63.08-165.29-101.38-268.09-101.38-223.79,0-405.21,181.43-405.21,405.22v1029.69c0,223.79,181.42,405.22,405.21,405.22,102.8,0,196.64-38.3,268.09-101.38-171.47,101.38-342.93-5.81-342.93-193.04v-701.87l873.87,894.91s.08.05.09.06c71.43,63.04,165.24,101.32,268,101.32,223.79,0,405.22-181.43,405.22-405.22v-392.75h.8V435.16Z" style="fill: #032fa0;"></path></svg>